<?xml version="1.0" encoding="UTF-8" standalone="no"?>
<svg
   xmlns:dc="http://purl.org/dc/elements/1.1/"
   xmlns:cc="http://creativecommons.org/ns#"
   xmlns:rdf="http://www.w3.org/1999/02/22-rdf-syntax-ns#"
   xmlns:svg="http://www.w3.org/2000/svg"
   xmlns="http://www.w3.org/2000/svg"
   xmlns:xlink="http://www.w3.org/1999/xlink"
   xmlns:sodipodi="http://sodipodi.sourceforge.net/DTD/sodipodi-0.dtd"
   xmlns:inkscape="http://www.inkscape.org/namespaces/inkscape"
   data-v-423bf9ae=""
   viewBox="0 0 67.999997 60"
   class="font"
   version="1.1"
   id="svg20"
   sodipodi:docname="logo_new_initials.svg"
   inkscape:version="1.0.2 (e86c870879, 2021-01-15, custom)"
   width="68"
   height="60">
  <metadata
     id="metadata24">
    <rdf:RDF>
      <cc:Work
         rdf:about="">
        <dc:format>image/svg+xml</dc:format>
        <dc:type
           rdf:resource="http://purl.org/dc/dcmitype/StillImage" />
        <dc:title></dc:title>
      </cc:Work>
    </rdf:RDF>
  </metadata>
  <sodipodi:namedview
     pagecolor="#ffffff"
     bordercolor="#666666"
     borderopacity="1"
     objecttolerance="10"
     gridtolerance="10"
     guidetolerance="10"
     inkscape:pageopacity="0"
     inkscape:pageshadow="2"
     inkscape:window-width="2498"
     inkscape:window-height="1057"
     id="namedview22"
     showgrid="false"
     inkscape:zoom="1.3057608"
     inkscape:cx="422.74206"
     inkscape:cy="30"
     inkscape:window-x="54"
     inkscape:window-y="-8"
     inkscape:window-maximized="1"
     inkscape:current-layer="svg20" />
  <!---->
  <!---->
  <defs
     data-v-423bf9ae=""
     id="defs15">
    <linearGradient
       data-v-423bf9ae=""
       gradientTransform="rotate(25)"
       id="c2cdaf75-6341-4f4e-8c63-fb2b2759c150"
       x1="0"
       y1="0"
       x2="1"
       y2="0">
      <stop
         data-v-423bf9ae=""
         offset="0%"
         style="stop-color: rgb(30, 11, 54); stop-opacity: 1;"
         id="stop10" />
      <stop
         data-v-423bf9ae=""
         offset="100%"
         style="stop-color: rgb(202, 55, 130); stop-opacity: 1;"
         id="stop12" />
    </linearGradient>
    <linearGradient
       inkscape:collect="always"
       xlink:href="#c2cdaf75-6341-4f4e-8c63-fb2b2759c150"
       id="linearGradient114"
       gradientTransform="matrix(0.80574711,0,0,1.2410842,-68.944667,0.26933332)"
       x1="95.129105"
       y1="2.8281724"
       x2="103.40413"
       y2="2.8281724"
       gradientUnits="userSpaceOnUse" />
    <linearGradient
       inkscape:collect="always"
       xlink:href="#c2cdaf75-6341-4f4e-8c63-fb2b2759c150"
       id="linearGradient182"
       gradientTransform="scale(0.89317046,1.1196071)"
       x1="0.78372498"
       y1="3.3225941"
       x2="9.5487044"
       y2="3.3225941"
       gradientUnits="userSpaceOnUse" />
    <linearGradient
       inkscape:collect="always"
       xlink:href="#c2cdaf75-6341-4f4e-8c63-fb2b2759c150"
       id="linearGradient184"
       gradientTransform="scale(1.1505203,0.86917195)"
       x1="0.60842037"
       y1="4.2799356"
       x2="12.492529"
       y2="4.2799356"
       gradientUnits="userSpaceOnUse" />
  </defs>
  <g
     data-v-423bf9ae=""
     id="4d19fedd-86ef-4e44-baea-0a729c706f31"
     fill="url(#c2cdaf75-6341-4f4e-8c63-fb2b2759c150)"
     transform="matrix(4.7095762,0,0,4.7095762,-1.2966986,-16.530612)"
     style="fill:url(#linearGradient184)">
    <path
       d="m 13.445333,6.7393334 v 0 0 q -0.27,-0.52 -0.63,-0.8 v 0 0 q -0.36,-0.28 -0.74,-0.38 v 0 0 q -0.37,-0.1 -0.71,-0.03 v 0 0 q -0.34,0.07 -0.57,0.24 v 0 0 q -0.22,0.17 -0.28,0.41 v 0 0 q -0.05,0.24 0.14,0.49 v 0 0 q 0.27,0.33 0.76,0.73 v 0 0 q 0.49,0.4 1.02,0.85 v 0 0 q 0.52,0.45 1,0.92 v 0 0 q 0.47,0.48 0.7,0.9699996 v 0 0 q 0.28,0.630001 0.23,1.320001 v 0 0 q -0.04,0.7 -0.4,1.27 v 0 0 q -0.35,0.57 -1.01,0.95 v 0 0 q -0.66,0.37 -1.6,0.37 v 0 0 q -0.56,0 -1.1,-0.18 v 0 0 q -0.5299997,-0.17 -1.0099994,-0.49 v 0 0 q -0.4800003,-0.31 -0.8800003,-0.75 v 0 0 q -0.39,-0.43 -0.66,-0.96 v 0 l 1.4700003,-1.08 v 0 q 0.13,0.26 0.32,0.52 v 0 0 q 0.1999997,0.25 0.4399997,0.47 v 0 0 q 0.2299997,0.21 0.4899997,0.37 v 0 0 q 0.26,0.16 0.5,0.23 v 0 0 q 0.42,0.12 0.79,0.03 v 0 0 q 0.37,-0.08 0.58,-0.31 v 0 0 q 0.21,-0.23 0.21,-0.58 v 0 0 q 0,-0.34 -0.32,-0.75 v 0 0 q -0.35,-0.430001 -0.94,-0.8900006 v 0 0 q -0.59,-0.46 -1.16,-0.98 v 0 0 q -0.5699994,-0.52 -0.9899997,-1.12 v 0 0 q -0.42,-0.6 -0.42,-1.32 v 0 0 q 0,-0.54 0.22,-1.01 v 0 0 q 0.22,-0.46 0.6000003,-0.78 v 0 0 q 0.3699997,-0.32 0.8599994,-0.5 v 0 0 q 0.49,-0.19 1.02,-0.19 v 0 0 q 0.67,0 1.25,0.19 v 0 0 q 0.58,0.19 0.95,0.54 v 0 0 q 0.26,0.24 0.4,0.53 v 0 0 q 0.14,0.3 0.14,0.6 v 0 0 q 0,0.3 -0.16,0.59 v 0 0 q -0.16,0.28 -0.51,0.51 z"
       id="path85"
       style="fill:url(#linearGradient114)" />
    <path
       id="path17"
       d="m 2.34,3.72 h 1.83 v 0 q 0.63,0 1.13,0.17 v 0 0 q 0.5,0.17 0.9,0.38 v 0 0 q 0.83,0.42 1.36,1.17 v 0 0 Q 8.09,6.19 8.33,7.1 v 0 0 q 0.24,0.91 0.19,1.88 v 0 0 Q 8.47,9.95 8.13,10.82 v 0 0 q -0.35,0.86 -0.98,1.52 v 0 0 q -0.63,0.67 -1.54,0.95 v 0 0 Q 5.25,13.4 4.63,13.45 v 0 0 Q 4,13.5 3.3,13.52 v 0 0 q -0.7,0.02 -1.39,0.01 v 0 0 Q 1.22,13.52 0.7,13.52 v 0 -8.13 0 q 0,-0.35 0.08,-0.66 v 0 0 Q 0.87,4.42 1.06,4.2 v 0 0 Q 1.25,3.98 1.56,3.85 v 0 0 Q 1.88,3.72 2.34,3.72 Z m 0.22,1.87 v 6.11 0 q 0.62,0 1.16,0 v 0 0 q 0.55,0 1.01,-0.1 v 0 0 q 0.45,-0.11 0.83,-0.37 v 0 0 q 0.38,-0.27 0.66,-0.8 v 0 0 Q 6.44,10 6.55,9.44 v 0 0 Q 6.66,8.88 6.63,8.3 v 0 0 Q 6.59,7.73 6.41,7.2 v 0 0 Q 6.22,6.68 5.84,6.3 v 0 0 Q 5.52,5.98 5.07,5.78 v 0 0 Q 4.62,5.59 4.13,5.59 v 0 z"
       style="fill:url(#linearGradient182)" />
  </g>
  <!---->
  <!---->
</svg>
