<svg data-v-423bf9ae="" xmlns="http://www.w3.org/2000/svg" viewBox="0 0 577.4411435468511 60" class="font"><!----><!----><defs data-v-423bf9ae=""><linearGradient data-v-423bf9ae="" gradientTransform="rotate(25)" id="c2cdaf75-6341-4f4e-8c63-fb2b2759c150" x1="0%" y1="0%" x2="100%" y2="0%"><stop data-v-423bf9ae="" offset="0%" style="stop-color: rgb(30, 11, 54); stop-opacity: 1;"></stop><stop data-v-423bf9ae="" offset="100%" style="stop-color: rgb(202, 55, 130); stop-opacity: 1;"></stop></linearGradient></defs><g data-v-423bf9ae="" id="4d19fedd-86ef-4e44-baea-0a729c706f31" fill="url(#c2cdaf75-6341-4f4e-8c63-fb2b2759c150)" transform="matrix(4.709576222757963,0,0,4.709576222757963,-3.296698608083773,-16.530611781710697)"><path d="M2.34 3.72L4.17 3.72L4.17 3.72Q4.80 3.72 5.30 3.89L5.30 3.89L5.30 3.89Q5.80 4.06 6.20 4.27L6.20 4.27L6.20 4.27Q7.03 4.69 7.56 5.44L7.56 5.44L7.56 5.44Q8.09 6.19 8.33 7.10L8.33 7.10L8.33 7.10Q8.57 8.01 8.52 8.98L8.52 8.98L8.52 8.98Q8.47 9.95 8.13 10.82L8.13 10.82L8.13 10.82Q7.78 11.68 7.15 12.34L7.15 12.34L7.15 12.34Q6.52 13.01 5.61 13.29L5.61 13.29L5.61 13.29Q5.25 13.40 4.63 13.45L4.63 13.45L4.63 13.45Q4.00 13.50 3.30 13.52L3.30 13.52L3.30 13.52Q2.60 13.54 1.91 13.53L1.91 13.53L1.91 13.53Q1.22 13.52 0.70 13.52L0.70 13.52L0.70 5.39L0.70 5.39Q0.70 5.04 0.78 4.73L0.78 4.73L0.78 4.73Q0.87 4.42 1.06 4.20L1.06 4.20L1.06 4.20Q1.25 3.98 1.56 3.85L1.56 3.85L1.56 3.85Q1.88 3.72 2.34 3.72L2.34 3.72ZM2.56 5.59L2.56 11.70L2.56 11.70Q3.18 11.70 3.72 11.70L3.72 11.70L3.72 11.70Q4.27 11.70 4.73 11.60L4.73 11.60L4.73 11.60Q5.18 11.49 5.56 11.23L5.56 11.23L5.56 11.23Q5.94 10.96 6.22 10.43L6.22 10.43L6.22 10.43Q6.44 10.00 6.55 9.44L6.55 9.44L6.55 9.44Q6.66 8.88 6.63 8.30L6.63 8.30L6.63 8.30Q6.59 7.73 6.41 7.20L6.41 7.20L6.41 7.20Q6.22 6.68 5.84 6.30L5.84 6.30L5.84 6.30Q5.52 5.98 5.07 5.78L5.07 5.78L5.07 5.78Q4.62 5.59 4.13 5.59L4.13 5.59L2.56 5.59ZM14.88 10.72L14.88 10.72L14.88 10.72Q14.13 10.92 13.50 10.86L13.50 10.86L13.50 10.86Q12.88 10.81 12.48 10.56L12.48 10.56L12.48 10.56Q12.08 10.32 11.95 9.91L11.95 9.91L11.95 9.91Q11.82 9.49 12.03 8.97L12.03 8.97L12.03 8.97Q12.46 9.34 13.03 9.37L13.03 9.37L13.03 9.37Q13.61 9.41 14.14 9.35L14.14 9.35L14.14 9.35Q14.59 9.31 14.82 9.16L14.82 9.16L14.82 9.16Q15.05 9.00 15.11 8.80L15.11 8.80L15.11 8.80Q15.16 8.60 15.06 8.37L15.06 8.37L15.06 8.37Q14.97 8.15 14.75 7.97L14.75 7.97L14.75 7.97Q14.53 7.78 14.22 7.67L14.22 7.67L14.22 7.67Q13.90 7.56 13.52 7.57L13.52 7.57L13.52 7.57Q13.12 7.60 12.75 7.77L12.75 7.77L12.75 7.77Q12.39 7.94 12.11 8.23L12.11 8.23L12.11 8.23Q11.83 8.53 11.66 8.92L11.66 8.92L11.66 8.92Q11.49 9.31 11.48 9.79L11.48 9.79L11.48 9.79Q11.47 10.18 11.57 10.56L11.57 10.56L11.57 10.56Q11.68 10.93 11.89 11.25L11.89 11.25L11.89 11.25Q12.10 11.56 12.39 11.78L12.39 11.78L12.39 11.78Q12.68 12.00 13.06 12.05L13.06 12.05L13.06 12.05Q13.59 12.15 14.15 11.98L14.15 11.98L14.15 11.98Q14.71 11.82 15.15 11.37L15.15 11.37L16.62 12.08L16.62 12.08Q16.04 12.94 15.26 13.31L15.26 13.31L15.26 13.31Q14.48 13.68 13.47 13.68L13.47 13.68L13.47 13.68Q12.53 13.68 11.82 13.35L11.82 13.35L11.82 13.35Q11.12 13.02 10.65 12.47L10.65 12.47L10.65 12.47Q10.18 11.93 9.95 11.24L9.95 11.24L9.95 11.24Q9.72 10.54 9.73 9.82L9.73 9.82L9.73 9.82Q9.74 9.10 10.01 8.41L10.01 8.41L10.01 8.41Q10.28 7.71 10.78 7.18L10.78 7.18L10.78 7.18Q11.34 6.58 12.09 6.33L12.09 6.33L12.09 6.33Q12.84 6.08 13.62 6.08L13.62 6.08L13.62 6.08Q14.49 6.08 15.12 6.37L15.12 6.37L15.12 6.37Q15.75 6.66 16.14 7.12L16.14 7.12L16.14 7.12Q16.53 7.57 16.66 8.13L16.66 8.13L16.66 8.13Q16.79 8.68 16.64 9.20L16.64 9.20L16.64 9.20Q16.49 9.72 16.06 10.13L16.06 10.13L16.06 10.13Q15.62 10.54 14.88 10.72ZM20.59 13.52L17.50 6.29L19.36 6.29L21.18 10.56L22.55 7.39L22.55 7.39Q22.69 7.08 22.90 6.83L22.90 6.83L22.90 6.83Q23.11 6.57 23.39 6.40L23.39 6.40L23.39 6.40Q23.67 6.23 24.04 6.18L24.04 6.18L24.04 6.18Q24.42 6.13 24.88 6.23L24.88 6.23L21.76 13.52L20.59 13.52ZM30.21 10.72L30.21 10.72L30.21 10.72Q29.46 10.92 28.83 10.86L28.83 10.86L28.83 10.86Q28.21 10.81 27.81 10.56L27.81 10.56L27.81 10.56Q27.41 10.32 27.28 9.91L27.28 9.91L27.28 9.91Q27.15 9.49 27.36 8.97L27.36 8.97L27.36 8.97Q27.79 9.34 28.36 9.37L28.36 9.37L28.36 9.37Q28.94 9.41 29.47 9.35L29.47 9.35L29.47 9.35Q29.92 9.31 30.15 9.16L30.15 9.16L30.15 9.16Q30.38 9.00 30.44 8.80L30.44 8.80L30.44 8.80Q30.49 8.60 30.39 8.37L30.39 8.37L30.39 8.37Q30.30 8.15 30.08 7.97L30.08 7.97L30.08 7.97Q29.86 7.78 29.55 7.67L29.55 7.67L29.55 7.67Q29.23 7.56 28.85 7.57L28.85 7.57L28.85 7.57Q28.45 7.60 28.08 7.77L28.08 7.77L28.08 7.77Q27.72 7.94 27.44 8.23L27.44 8.23L27.44 8.23Q27.16 8.53 26.99 8.92L26.99 8.92L26.99 8.92Q26.82 9.31 26.81 9.79L26.81 9.79L26.81 9.79Q26.80 10.18 26.90 10.56L26.90 10.56L26.90 10.56Q27.01 10.93 27.22 11.25L27.22 11.25L27.22 11.25Q27.43 11.56 27.72 11.78L27.72 11.78L27.72 11.78Q28.01 12.00 28.39 12.05L28.39 12.05L28.39 12.05Q28.92 12.15 29.48 11.98L29.48 11.98L29.48 11.98Q30.04 11.82 30.48 11.37L30.48 11.37L31.95 12.08L31.95 12.08Q31.37 12.94 30.59 13.31L30.59 13.31L30.59 13.31Q29.81 13.68 28.80 13.68L28.80 13.68L28.80 13.68Q27.86 13.68 27.15 13.35L27.15 13.35L27.15 13.35Q26.45 13.02 25.98 12.47L25.98 12.47L25.98 12.47Q25.51 11.93 25.28 11.24L25.28 11.24L25.28 11.24Q25.05 10.54 25.06 9.82L25.06 9.82L25.06 9.82Q25.07 9.10 25.34 8.41L25.34 8.41L25.34 8.41Q25.61 7.71 26.11 7.18L26.11 7.18L26.11 7.18Q26.67 6.58 27.42 6.33L27.42 6.33L27.42 6.33Q28.17 6.08 28.95 6.08L28.95 6.08L28.95 6.08Q29.82 6.08 30.45 6.37L30.45 6.37L30.45 6.37Q31.08 6.66 31.47 7.12L31.47 7.12L31.47 7.12Q31.86 7.57 31.99 8.13L31.99 8.13L31.99 8.13Q32.12 8.68 31.97 9.20L31.97 9.20L31.97 9.20Q31.82 9.72 31.39 10.13L31.39 10.13L31.39 10.13Q30.95 10.54 30.21 10.72ZM35.01 3.72L35.01 3.72L35.01 13.52L33.25 13.52L33.25 5.15L33.25 5.15Q33.25 4.48 33.73 4.10L33.73 4.10L33.73 4.10Q34.20 3.71 35.01 3.72ZM39.93 6.10L39.93 6.10L39.93 6.10Q41.03 6.10 41.89 6.64L41.89 6.64L41.89 6.64Q42.76 7.17 43.25 7.99L43.25 7.99L43.25 7.99Q43.74 8.82 43.77 9.83L43.77 9.83L43.77 9.83Q43.81 10.84 43.26 11.80L43.26 11.80L43.26 11.80Q42.80 12.60 42.06 13.08L42.06 13.08L42.06 13.08Q41.31 13.55 40.47 13.67L40.47 13.67L40.47 13.67Q39.63 13.79 38.79 13.53L38.79 13.53L38.79 13.53Q37.94 13.27 37.27 12.60L37.27 12.60L37.27 12.60Q36.51 11.83 36.26 10.82L36.26 10.82L36.26 10.82Q36.01 9.81 36.30 8.81L36.30 8.81L36.30 8.81Q36.43 8.40 36.71 8.13L36.71 8.13L36.71 8.13Q37.00 7.87 37.37 7.74L37.37 7.74L37.37 7.74Q37.73 7.62 38.12 7.63L38.12 7.63L38.12 7.63Q38.51 7.64 38.85 7.79L38.85 7.79L38.85 7.79Q39.19 7.94 39.42 8.21L39.42 8.21L39.42 8.21Q39.65 8.48 39.69 8.88L39.69 8.88L39.69 8.88Q39.48 8.72 39.19 8.71L39.19 8.71L39.19 8.71Q38.89 8.71 38.62 8.84L38.62 8.84L38.62 8.84Q38.35 8.97 38.16 9.25L38.16 9.25L38.16 9.25Q37.97 9.52 37.97 9.93L37.97 9.93L37.97 9.93Q37.97 10.63 38.26 11.09L38.26 11.09L38.26 11.09Q38.56 11.55 39.00 11.78L39.00 11.78L39.00 11.78Q39.44 12.01 39.95 12.01L39.95 12.01L39.95 12.01Q40.46 12.01 40.90 11.77L40.90 11.77L40.90 11.77Q41.34 11.54 41.64 11.07L41.64 11.07L41.64 11.07Q41.93 10.60 41.93 9.90L41.93 9.90L41.93 9.90Q41.93 9.35 41.73 8.93L41.73 8.93L41.73 8.93Q41.54 8.51 41.21 8.24L41.21 8.24L41.21 8.24Q40.88 7.97 40.45 7.86L40.45 7.86L40.45 7.86Q40.01 7.76 39.52 7.85L39.52 7.85L39.52 7.85Q39.31 7.60 39.01 7.46L39.01 7.46L39.01 7.46Q38.71 7.31 38.36 7.26L38.36 7.26L38.36 7.26Q38.01 7.21 37.66 7.27L37.66 7.27L37.66 7.27Q37.31 7.34 37.00 7.52L37.00 7.52L37.00 7.52Q37.56 6.85 38.30 6.48L38.30 6.48L38.30 6.48Q39.05 6.10 39.93 6.10ZM46.70 6.29L46.70 7.07L46.70 7.07Q47.22 6.55 47.84 6.31L47.84 6.31L47.84 6.31Q48.47 6.08 49.10 6.10L49.10 6.10L49.10 6.10Q49.73 6.13 50.32 6.40L50.32 6.40L50.32 6.40Q50.90 6.66 51.35 7.15L51.35 7.15L51.35 7.15Q51.80 7.64 52.07 8.34L52.07 8.34L52.07 8.34Q52.35 9.03 52.35 9.90L52.35 9.90L52.35 9.90Q52.35 10.74 52.05 11.44L52.05 11.44L52.05 11.44Q51.76 12.14 51.27 12.64L51.27 12.64L51.27 12.64Q50.78 13.15 50.14 13.42L50.14 13.42L50.14 13.42Q49.50 13.69 48.83 13.66L48.83 13.66L48.83 13.66Q48.13 13.64 47.73 13.36L47.73 13.36L47.73 13.36Q47.32 13.09 47.14 12.73L47.14 12.73L47.14 12.73Q46.96 12.38 46.96 12.01L46.96 12.01L46.96 12.01Q46.96 11.63 47.08 11.41L47.08 11.41L47.08 11.41Q47.21 11.58 47.38 11.70L47.38 11.70L47.38 11.70Q47.56 11.82 47.76 11.88L47.76 11.88L47.76 11.88Q47.96 11.94 48.18 11.97L48.18 11.97L48.18 11.97Q48.40 12.00 48.59 12.00L48.59 12.00L48.59 12.00Q49.24 12.00 49.67 11.68L49.67 11.68L49.67 11.68Q50.11 11.37 50.32 10.90L50.32 10.90L50.32 10.90Q50.54 10.43 50.54 9.88L50.54 9.88L50.54 9.88Q50.54 9.32 50.33 8.86L50.33 8.86L50.33 8.86Q50.12 8.39 49.69 8.07L49.69 8.07L49.69 8.07Q49.25 7.76 48.59 7.76L48.59 7.76L48.59 7.76Q48.05 7.76 47.68 8.01L47.68 8.01L47.68 8.01Q47.32 8.26 47.10 8.66L47.10 8.66L47.10 8.66Q46.89 9.06 46.80 9.55L46.80 9.55L46.80 9.55Q46.70 10.04 46.70 10.53L46.70 10.53L46.70 16.25L44.90 16.25L44.90 7.74L44.90 7.74Q44.90 7.38 45.05 7.10L45.05 7.10L45.05 7.10Q45.19 6.82 45.44 6.63L45.44 6.63L45.44 6.63Q45.70 6.44 46.02 6.36L46.02 6.36L46.02 6.36Q46.34 6.27 46.70 6.29L46.70 6.29ZM58.41 10.72L58.41 10.72L58.41 10.72Q57.65 10.92 57.03 10.86L57.03 10.86L57.03 10.86Q56.41 10.81 56.01 10.56L56.01 10.56L56.01 10.56Q55.61 10.32 55.48 9.91L55.48 9.91L55.48 9.91Q55.34 9.49 55.55 8.97L55.55 8.97L55.55 8.97Q55.99 9.34 56.56 9.37L56.56 9.37L56.56 9.37Q57.13 9.41 57.67 9.35L57.67 9.35L57.67 9.35Q58.11 9.31 58.34 9.16L58.34 9.16L58.34 9.16Q58.58 9.00 58.63 8.80L58.63 8.80L58.63 8.80Q58.69 8.60 58.59 8.37L58.59 8.37L58.59 8.37Q58.49 8.15 58.27 7.97L58.27 7.97L58.27 7.97Q58.06 7.78 57.74 7.67L57.74 7.67L57.74 7.67Q57.43 7.56 57.05 7.57L57.05 7.57L57.05 7.57Q56.64 7.60 56.28 7.77L56.28 7.77L56.28 7.77Q55.92 7.94 55.64 8.23L55.64 8.23L55.64 8.23Q55.36 8.53 55.19 8.92L55.19 8.92L55.19 8.92Q55.02 9.31 55.01 9.79L55.01 9.79L55.01 9.79Q54.99 10.18 55.10 10.56L55.10 10.56L55.10 10.56Q55.20 10.93 55.41 11.25L55.41 11.25L55.41 11.25Q55.62 11.56 55.92 11.78L55.92 11.78L55.92 11.78Q56.21 12.00 56.59 12.05L56.59 12.05L56.59 12.05Q57.12 12.15 57.68 11.98L57.68 11.98L57.68 11.98Q58.24 11.82 58.67 11.37L58.67 11.37L60.14 12.08L60.14 12.08Q59.57 12.94 58.79 13.31L58.79 13.31L58.79 13.31Q58.00 13.68 56.99 13.68L56.99 13.68L56.99 13.68Q56.06 13.68 55.35 13.35L55.35 13.35L55.35 13.35Q54.64 13.02 54.17 12.47L54.17 12.47L54.17 12.47Q53.70 11.93 53.47 11.24L53.47 11.24L53.47 11.24Q53.24 10.54 53.26 9.82L53.26 9.82L53.26 9.82Q53.27 9.10 53.54 8.41L53.54 8.41L53.54 8.41Q53.80 7.71 54.31 7.18L54.31 7.18L54.31 7.18Q54.87 6.58 55.61 6.33L55.61 6.33L55.61 6.33Q56.36 6.08 57.15 6.08L57.15 6.08L57.15 6.08Q58.02 6.08 58.65 6.37L58.65 6.37L58.65 6.37Q59.28 6.66 59.67 7.12L59.67 7.12L59.67 7.12Q60.06 7.57 60.19 8.13L60.19 8.13L60.19 8.13Q60.31 8.68 60.16 9.20L60.16 9.20L60.16 9.20Q60.02 9.72 59.58 10.13L59.58 10.13L59.58 10.13Q59.15 10.54 58.41 10.72ZM61.45 13.52L61.45 6.24L63.01 6.24L63.01 7.17L63.01 7.17Q63.25 6.68 63.62 6.39L63.62 6.39L63.62 6.39Q63.99 6.10 64.44 6.08L64.44 6.08L64.44 6.08Q65.03 6.03 65.39 6.29L65.39 6.29L65.39 6.29Q65.76 6.55 65.91 6.92L65.91 6.92L65.91 6.92Q66.05 7.29 65.98 7.68L65.98 7.68L65.98 7.68Q65.91 8.06 65.60 8.29L65.60 8.29L65.60 8.29Q65.48 7.94 65.12 7.83L65.12 7.83L65.12 7.83Q64.76 7.73 64.37 7.86L64.37 7.86L64.37 7.86Q63.98 7.99 63.66 8.36L63.66 8.36L63.66 8.36Q63.35 8.72 63.29 9.31L63.29 9.31L63.29 9.31Q63.27 9.65 63.27 9.98L63.27 9.98L63.27 9.98Q63.27 10.30 63.27 10.58L63.27 10.58L63.27 13.52L61.45 13.52ZM71.01 8.50L71.01 8.50L71.01 8.50Q70.90 8.23 70.70 8.07L70.70 8.07L70.70 8.07Q70.50 7.91 70.27 7.83L70.27 7.83L70.27 7.83Q70.04 7.74 69.82 7.74L69.82 7.74L69.82 7.74Q69.61 7.73 69.47 7.78L69.47 7.78L69.47 7.78Q69.22 7.87 69.14 8.07L69.14 8.07L69.14 8.07Q69.06 8.27 69.22 8.46L69.22 8.46L69.22 8.46Q69.34 8.60 69.61 8.73L69.61 8.73L69.61 8.73Q69.89 8.86 70.22 9.02L70.22 9.02L70.22 9.02Q70.56 9.18 70.92 9.39L70.92 9.39L70.92 9.39Q71.27 9.59 71.57 9.87L71.57 9.87L71.57 9.87Q71.86 10.15 72.05 10.53L72.05 10.53L72.05 10.53Q72.24 10.91 72.24 11.42L72.24 11.42L72.24 11.42Q72.24 12.03 71.97 12.48L71.97 12.48L71.97 12.48Q71.71 12.94 71.27 13.22L71.27 13.22L71.27 13.22Q70.83 13.50 70.27 13.60L70.27 13.60L70.27 13.60Q69.72 13.71 69.15 13.62L69.15 13.62L69.15 13.62Q68.59 13.54 68.05 13.24L68.05 13.24L68.05 13.24Q67.52 12.94 67.13 12.42L67.13 12.42L68.25 11.21L68.25 11.21Q68.60 11.63 68.98 11.82L68.98 11.82L68.98 11.82Q69.37 12.00 69.70 12.02L69.70 12.02L69.70 12.02Q70.03 12.04 70.25 11.92L70.25 11.92L70.25 11.92Q70.48 11.80 70.52 11.60L70.52 11.60L70.52 11.60Q70.57 11.40 70.41 11.15L70.41 11.15L70.41 11.15Q70.24 10.91 69.76 10.67L69.76 10.67L69.76 10.67Q69.31 10.44 68.89 10.21L68.89 10.21L68.89 10.21Q68.46 9.97 68.13 9.67L68.13 9.67L68.13 9.67Q67.80 9.38 67.60 9.02L67.60 9.02L67.60 9.02Q67.40 8.65 67.40 8.16L67.40 8.16L67.40 8.16Q67.40 7.66 67.61 7.27L67.61 7.27L67.61 7.27Q67.82 6.87 68.17 6.61L68.17 6.61L68.17 6.61Q68.52 6.34 68.96 6.22L68.96 6.22L68.96 6.22Q69.41 6.09 69.89 6.10L69.89 6.10L69.89 6.10Q70.70 6.15 71.13 6.46L71.13 6.46L71.13 6.46Q71.55 6.78 71.66 7.18L71.66 7.18L71.66 7.18Q71.76 7.57 71.59 7.95L71.59 7.95L71.59 7.95Q71.41 8.33 71.01 8.50ZM82.39 6.47L82.39 6.47L82.39 6.47Q82.12 5.95 81.76 5.67L81.76 5.67L81.76 5.67Q81.40 5.39 81.02 5.29L81.02 5.29L81.02 5.29Q80.65 5.19 80.31 5.26L80.31 5.26L80.31 5.26Q79.97 5.33 79.74 5.50L79.74 5.50L79.74 5.50Q79.52 5.67 79.46 5.91L79.46 5.91L79.46 5.91Q79.41 6.15 79.60 6.40L79.60 6.40L79.60 6.40Q79.87 6.73 80.36 7.13L80.36 7.13L80.36 7.13Q80.85 7.53 81.38 7.98L81.38 7.98L81.38 7.98Q81.90 8.43 82.38 8.90L82.38 8.90L82.38 8.90Q82.85 9.38 83.08 9.87L83.08 9.87L83.08 9.87Q83.36 10.50 83.31 11.19L83.31 11.19L83.31 11.19Q83.27 11.89 82.91 12.46L82.91 12.46L82.91 12.46Q82.56 13.03 81.90 13.41L81.90 13.41L81.90 13.41Q81.24 13.78 80.30 13.78L80.30 13.78L80.30 13.78Q79.74 13.78 79.20 13.60L79.20 13.60L79.20 13.60Q78.67 13.43 78.19 13.11L78.19 13.11L78.19 13.11Q77.71 12.80 77.31 12.36L77.31 12.36L77.31 12.36Q76.92 11.93 76.65 11.40L76.65 11.40L78.12 10.32L78.12 10.32Q78.25 10.58 78.44 10.84L78.44 10.84L78.44 10.84Q78.64 11.09 78.88 11.31L78.88 11.31L78.88 11.31Q79.11 11.52 79.37 11.68L79.37 11.68L79.37 11.68Q79.63 11.84 79.87 11.91L79.87 11.91L79.87 11.91Q80.29 12.03 80.66 11.94L80.66 11.94L80.66 11.94Q81.03 11.86 81.24 11.63L81.24 11.63L81.24 11.63Q81.45 11.40 81.45 11.05L81.45 11.05L81.45 11.05Q81.45 10.71 81.13 10.30L81.13 10.30L81.13 10.30Q80.78 9.87 80.19 9.41L80.19 9.41L80.19 9.41Q79.60 8.95 79.03 8.43L79.03 8.43L79.03 8.43Q78.46 7.91 78.04 7.31L78.04 7.31L78.04 7.31Q77.62 6.71 77.62 5.99L77.62 5.99L77.62 5.99Q77.62 5.45 77.84 4.98L77.84 4.98L77.84 4.98Q78.06 4.52 78.44 4.20L78.44 4.20L78.44 4.20Q78.81 3.88 79.30 3.70L79.30 3.70L79.30 3.70Q79.79 3.51 80.32 3.51L80.32 3.51L80.32 3.51Q80.99 3.51 81.57 3.70L81.57 3.70L81.57 3.70Q82.15 3.89 82.52 4.24L82.52 4.24L82.52 4.24Q82.78 4.48 82.92 4.77L82.92 4.77L82.92 4.77Q83.06 5.07 83.06 5.37L83.06 5.37L83.06 5.37Q83.06 5.67 82.90 5.96L82.90 5.96L82.90 5.96Q82.74 6.24 82.39 6.47ZM85.27 6.33L85.27 5.15L85.27 5.15Q85.27 4.76 85.42 4.49L85.42 4.49L85.42 4.49Q85.57 4.21 85.81 4.05L85.81 4.05L85.81 4.05Q86.06 3.88 86.38 3.80L86.38 3.80L86.38 3.80Q86.70 3.72 87.04 3.72L87.04 3.72L87.04 6.33L88.66 6.33L88.66 6.33Q88.66 6.61 88.61 6.87L88.61 6.87L88.61 6.87Q88.56 7.14 88.42 7.36L88.42 7.36L88.42 7.36Q88.28 7.57 88.05 7.71L88.05 7.71L88.05 7.71Q87.81 7.84 87.43 7.84L87.43 7.84L87.04 7.84L87.04 11.80L87.04 11.80Q87.04 12.03 87.21 12.12L87.21 12.12L87.21 12.12Q87.37 12.21 87.60 12.20L87.60 12.20L87.60 12.20Q87.82 12.19 88.05 12.10L88.05 12.10L88.05 12.10Q88.27 12.00 88.37 11.83L88.37 11.83L88.37 11.83Q88.55 12.29 88.39 12.65L88.39 12.65L88.39 12.65Q88.23 13.01 87.88 13.22L87.88 13.22L87.88 13.22Q87.54 13.44 87.09 13.50L87.09 13.50L87.09 13.50Q86.63 13.57 86.23 13.43L86.23 13.43L86.23 13.43Q85.83 13.30 85.55 12.96L85.55 12.96L85.55 12.96Q85.27 12.61 85.27 12.03L85.27 12.03L85.27 7.84L84.38 7.84L84.38 6.33L85.27 6.33ZM89.78 13.52L89.78 6.24L91.35 6.24L91.35 7.17L91.35 7.17Q91.59 6.68 91.96 6.39L91.96 6.39L91.96 6.39Q92.33 6.10 92.78 6.08L92.78 6.08L92.78 6.08Q93.37 6.03 93.73 6.29L93.73 6.29L93.73 6.29Q94.09 6.55 94.24 6.92L94.24 6.92L94.24 6.92Q94.39 7.29 94.32 7.68L94.32 7.68L94.32 7.68Q94.25 8.06 93.94 8.29L93.94 8.29L93.94 8.29Q93.81 7.94 93.46 7.83L93.46 7.83L93.46 7.83Q93.10 7.73 92.71 7.86L92.71 7.86L92.71 7.86Q92.32 7.99 92.00 8.36L92.00 8.36L92.00 8.36Q91.69 8.72 91.63 9.31L91.63 9.31L91.63 9.31Q91.60 9.65 91.60 9.98L91.60 9.98L91.60 9.98Q91.60 10.30 91.60 10.58L91.60 10.58L91.60 13.52L89.78 13.52ZM100.69 10.72L100.69 10.72L100.69 10.72Q99.93 10.92 99.31 10.86L99.31 10.86L99.31 10.86Q98.69 10.81 98.29 10.56L98.29 10.56L98.29 10.56Q97.89 10.32 97.75 9.91L97.75 9.91L97.75 9.91Q97.62 9.49 97.83 8.97L97.83 8.97L97.83 8.97Q98.27 9.34 98.84 9.37L98.84 9.37L98.84 9.37Q99.41 9.41 99.95 9.35L99.95 9.35L99.95 9.35Q100.39 9.31 100.62 9.16L100.62 9.16L100.62 9.16Q100.86 9.00 100.91 8.80L100.91 8.80L100.91 8.80Q100.97 8.60 100.87 8.37L100.87 8.37L100.87 8.37Q100.77 8.15 100.55 7.97L100.55 7.97L100.55 7.97Q100.34 7.78 100.02 7.67L100.02 7.67L100.02 7.67Q99.71 7.56 99.33 7.57L99.33 7.57L99.33 7.57Q98.92 7.60 98.56 7.77L98.56 7.77L98.56 7.77Q98.20 7.94 97.92 8.23L97.92 8.23L97.92 8.23Q97.64 8.53 97.47 8.92L97.47 8.92L97.47 8.92Q97.30 9.31 97.29 9.79L97.29 9.79L97.29 9.79Q97.27 10.18 97.38 10.56L97.38 10.56L97.38 10.56Q97.48 10.93 97.69 11.25L97.69 11.25L97.69 11.25Q97.90 11.56 98.20 11.78L98.20 11.78L98.20 11.78Q98.49 12.00 98.87 12.05L98.87 12.05L98.87 12.05Q99.40 12.15 99.96 11.98L99.96 11.98L99.96 11.98Q100.52 11.82 100.95 11.37L100.95 11.37L102.42 12.08L102.42 12.08Q101.85 12.94 101.07 13.31L101.07 13.31L101.07 13.31Q100.28 13.68 99.27 13.68L99.27 13.68L99.27 13.68Q98.34 13.68 97.63 13.35L97.63 13.35L97.63 13.35Q96.92 13.02 96.45 12.47L96.45 12.47L96.45 12.47Q95.98 11.93 95.75 11.24L95.75 11.24L95.75 11.24Q95.52 10.54 95.54 9.82L95.54 9.82L95.54 9.82Q95.55 9.10 95.82 8.41L95.82 8.41L95.82 8.41Q96.08 7.71 96.59 7.18L96.59 7.18L96.59 7.18Q97.15 6.58 97.89 6.33L97.89 6.33L97.89 6.33Q98.64 6.08 99.43 6.08L99.43 6.08L99.43 6.08Q100.30 6.08 100.93 6.37L100.93 6.37L100.93 6.37Q101.56 6.66 101.95 7.12L101.95 7.12L101.95 7.12Q102.34 7.57 102.47 8.13L102.47 8.13L102.47 8.13Q102.59 8.68 102.44 9.20L102.44 9.20L102.44 9.20Q102.30 9.72 101.86 10.13L101.86 10.13L101.86 10.13Q101.43 10.54 100.69 10.72ZM109.13 13.52L109.13 12.73L109.13 12.73Q108.60 13.24 107.97 13.48L107.97 13.48L107.97 13.48Q107.35 13.72 106.72 13.70L106.72 13.70L106.72 13.70Q106.09 13.68 105.50 13.41L105.50 13.41L105.50 13.41Q104.90 13.15 104.45 12.65L104.45 12.65L104.45 12.65Q103.99 12.15 103.72 11.46L103.72 11.46L103.72 11.46Q103.45 10.77 103.45 9.88L103.45 9.88L103.45 9.88Q103.45 9.04 103.74 8.33L103.74 8.33L103.74 8.33Q104.03 7.62 104.53 7.11L104.53 7.11L104.53 7.11Q105.03 6.61 105.66 6.34L105.66 6.34L105.66 6.34Q106.30 6.06 106.99 6.09L106.99 6.09L106.99 6.09Q107.66 6.12 108.07 6.39L108.07 6.39L108.07 6.39Q108.47 6.66 108.66 7.03L108.66 7.03L108.66 7.03Q108.85 7.39 108.86 7.76L108.86 7.76L108.86 7.76Q108.86 8.13 108.74 8.36L108.74 8.36L108.74 8.36Q108.50 8.01 108.07 7.89L108.07 7.89L108.07 7.89Q107.63 7.77 107.23 7.77L107.23 7.77L107.23 7.77Q106.58 7.77 106.15 8.09L106.15 8.09L106.15 8.09Q105.71 8.40 105.49 8.88L105.49 8.88L105.49 8.88Q105.27 9.35 105.26 9.91L105.26 9.91L105.26 9.91Q105.25 10.46 105.47 10.93L105.47 10.93L105.47 10.93Q105.69 11.41 106.13 11.73L106.13 11.73L106.13 11.73Q106.57 12.04 107.23 12.04L107.23 12.04L107.23 12.04Q107.79 12.04 108.15 11.79L108.15 11.79L108.15 11.79Q108.51 11.54 108.73 11.14L108.73 11.14L108.73 11.14Q108.95 10.74 109.04 10.24L109.04 10.24L109.04 10.24Q109.13 9.74 109.13 9.25L109.13 9.25L109.13 7.04L109.13 6.27L110.95 6.27L110.95 13.52L109.13 13.52ZM114.17 6.29L114.17 7.11L114.17 7.11Q114.28 6.86 114.51 6.68L114.51 6.68L114.51 6.68Q114.73 6.50 115.01 6.38L115.01 6.38L115.01 6.38Q115.29 6.26 115.58 6.19L115.58 6.19L115.58 6.19Q115.88 6.12 116.13 6.10L116.13 6.10L116.13 6.10Q116.66 6.06 117.19 6.24L117.19 6.24L117.19 6.24Q117.71 6.41 118.13 6.85L118.13 6.85L118.13 6.85Q118.26 6.99 118.36 7.13L118.36 7.13L118.36 7.13Q118.47 7.28 118.54 7.46L118.54 7.46L118.54 7.46Q118.58 7.15 118.79 6.91L118.79 6.91L118.79 6.91Q119.00 6.66 119.30 6.49L119.30 6.49L119.30 6.49Q119.60 6.31 119.95 6.22L119.95 6.22L119.95 6.22Q120.30 6.12 120.64 6.10L120.64 6.10L120.64 6.10Q121.18 6.06 121.71 6.24L121.71 6.24L121.71 6.24Q122.23 6.41 122.68 6.85L122.68 6.85L122.68 6.85Q123.31 7.50 123.31 8.74L123.31 8.74L123.31 13.52L121.49 13.52L121.49 13.52Q121.49 13.29 121.49 12.88L121.49 12.88L121.49 12.88Q121.49 12.47 121.48 11.99L121.48 11.99L121.48 11.99Q121.48 11.51 121.48 10.99L121.48 10.99L121.48 10.99Q121.48 10.47 121.46 10.01L121.46 10.01L121.46 10.01Q121.45 9.55 121.43 9.18L121.43 9.18L121.43 9.18Q121.41 8.82 121.38 8.65L121.38 8.65L121.38 8.65Q121.23 7.74 120.36 7.70L120.36 7.70L120.36 7.70Q119.87 7.69 119.54 7.98L119.54 7.98L119.54 7.98Q119.21 8.27 119.22 8.69L119.22 8.69L119.22 8.69Q119.10 8.65 118.97 8.55L118.97 8.55L118.97 8.55Q118.85 8.44 118.75 8.30L118.75 8.30L118.75 8.30Q118.76 8.41 118.76 8.52L118.76 8.52L118.76 8.52Q118.76 8.62 118.76 8.74L118.76 8.74L118.76 13.52L116.97 13.52L116.97 13.52Q116.97 13.29 116.98 12.88L116.98 12.88L116.98 12.88Q116.98 12.47 116.98 11.99L116.98 11.99L116.98 11.99Q116.98 11.51 116.98 10.99L116.98 10.99L116.98 10.99Q116.98 10.47 116.97 10.01L116.97 10.01L116.97 10.01Q116.96 9.55 116.93 9.18L116.93 9.18L116.93 9.18Q116.90 8.82 116.86 8.65L116.86 8.65L116.86 8.65Q116.75 8.20 116.44 7.98L116.44 7.98L116.44 7.98Q116.13 7.76 115.77 7.76L115.77 7.76L115.77 7.76Q115.28 7.76 115.01 8.02L115.01 8.02L115.01 8.02Q114.74 8.27 114.74 8.69L114.74 8.69L114.74 8.69Q114.58 8.64 114.41 8.46L114.41 8.46L114.41 8.46Q114.24 8.29 114.17 8.09L114.17 8.09L114.17 13.52L112.35 13.52L112.35 6.29L114.17 6.29Z"></path></g><!----><!----></svg>