<svg id="Capa_1" enable-background="new 0 0 512 512" height="512" viewBox="0 0 512 512" width="512" xmlns="http://www.w3.org/2000/svg"><g><path d="m512 256c0 2.586-.041 5.161-.113 7.726-1.865 62.645-26.228 119.645-65.283 163.181-3.451 3.832-7.005 7.572-10.673 11.198-34.882 34.459-79.623 58.988-129.607 68.94-13.825 2.771-28.062 4.409-42.598 4.842-2.565.072-5.14.113-7.726.113s-5.161-.041-7.726-.113c-14.536-.433-28.773-2.071-42.598-4.842-49.984-9.952-94.725-34.48-129.607-68.94-3.667-3.626-7.232-7.366-10.683-11.208-39.055-43.536-63.408-100.525-65.273-163.171-.072-2.565-.113-5.14-.113-7.726s.041-5.161.113-7.726c1.865-62.645 26.228-119.645 65.283-163.181 3.451-3.832 7.005-7.572 10.673-11.198 34.882-34.46 79.623-58.988 129.607-68.94 13.825-2.771 28.062-4.409 42.598-4.842 2.565-.072 5.14-.113 7.726-.113s5.161.041 7.726.113c14.536.433 28.773 2.071 42.598 4.842 49.984 9.951 94.725 34.48 129.607 68.94 3.667 3.626 7.232 7.366 10.683 11.208 39.054 43.536 63.408 100.525 65.272 163.171.073 2.565.114 5.14.114 7.726z" fill="#6bbef6"/><path d="m311.496 505.963c-17.874 3.956-36.438 6.037-55.496 6.037-141.382 0-256-114.618-256-256s114.618-256 256-256c19.058 0 37.622 2.081 55.496 6.037-114.7 25.342-200.504 127.64-200.504 249.963 0 122.324 85.804 224.621 200.504 249.963z" fill="#528ecb"/><g fill="#dfeaef"><path d="m435.931 73.895c-43.628 45.915-104.635 75.162-172.421 77.171-5.285.154-9.745.154-15.01 0-67.796-2.009-128.803-31.256-172.432-77.171-3.667 3.626-7.222 7.366-10.673 11.198 46.317 48.449 110.909 79.293 182.661 81.426 2.792.072 5.388.113 7.943.113s5.151-.041 7.953-.113c71.742-2.133 136.324-32.966 182.661-81.415-3.45-3.843-7.014-7.583-10.682-11.209z"/><path d="m263.943 345.481c-5.573-.154-10.292-.154-15.896 0-71.742 2.133-136.324 32.966-182.661 81.415 3.451 3.843 7.016 7.582 10.683 11.208 43.628-45.915 104.635-75.162 172.421-77.171 2.648-.072 5.099-.113 7.51-.113s4.862.041 7.5.113c67.796 2.009 128.803 31.256 172.432 77.171 3.667-3.626 7.222-7.366 10.673-11.198-46.318-48.448-110.91-79.292-182.662-81.425z"/><path d="m512 256c0 2.586-.041 5.161-.113 7.726h-248.16v248.16c-2.566.073-5.141.114-7.727.114s-5.161-.041-7.726-.113v-248.16h-248.161c-.072-2.566-.113-5.141-.113-7.727s.041-5.161.113-7.726h248.16v-248.161c2.566-.072 5.141-.113 7.727-.113s5.161.041 7.726.113v248.16h248.16c.073 2.566.114 5.141.114 7.727z"/><path d="m418.923 248.129c-1.113-61.512-15.504-120.727-40.527-166.724-2.143-3.935-4.389-7.819-6.676-11.548-18.492-30.112-40.888-52.169-65.396-64.901-13.825-2.771-28.062-4.409-42.598-4.842-2.565-.073-5.14-.114-7.726-.114s-5.161.041-7.726.113c-14.536.433-28.773 2.071-42.598 4.842-24.508 12.733-46.904 34.789-65.396 64.901-2.225 3.636-4.471 7.52-6.676 11.548-25.023 45.997-39.415 105.212-40.527 166.735-.051 2.606-.072 5.233-.072 7.86s.021 5.254.072 7.871c1.113 61.512 15.504 120.727 40.527 166.724 2.143 3.935 4.389 7.819 6.676 11.548 18.492 30.112 40.888 52.168 65.396 64.901 13.825 2.771 28.062 4.409 42.598 4.842 2.565.072 5.141.113 7.726.113 2.586 0 5.161-.041 7.726-.113 14.536-.433 28.773-2.071 42.598-4.842 24.508-12.733 46.904-34.789 65.396-64.901 2.225-3.636 4.471-7.52 6.676-11.548 25.023-45.997 39.415-105.212 40.527-166.735.052-2.606.072-5.233.072-7.86 0-2.626-.02-5.253-.072-7.87zm-15.453 15.453c-1.061 59.081-14.793 115.772-38.642 159.627-2.071 3.781-4.183 7.438-6.284 10.858-26.651 43.412-61.543 68.311-98.217 70.104-3.049.144-5.625.134-8.633 0-36.695-1.792-71.587-26.692-98.238-70.104-2.153-3.503-4.265-7.16-6.284-10.858-23.849-43.855-37.581-100.546-38.642-159.616-.051-2.524-.072-5.048-.072-7.593s.021-5.068.072-7.582c1.061-59.081 14.793-115.772 38.642-159.627 2.071-3.781 4.183-7.438 6.284-10.858 26.651-43.412 61.543-68.311 98.217-70.104 1.525-.072 2.936-.103 4.327-.103s2.802.031 4.306.103c36.695 1.792 71.587 26.692 98.238 70.104 2.153 3.503 4.265 7.16 6.284 10.858 23.849 43.855 37.581 100.546 38.642 159.616.051 2.524.072 5.048.072 7.593.001 2.544-.02 5.068-.072 7.582z"/></g><g><circle cx="100.734" cy="256" fill="#86f1a7" r="31.115"/><path d="m108.951 286.009c-2.617.721-5.378 1.103-8.221 1.103-17.183 0-31.111-13.928-31.111-31.112 0-17.183 13.928-31.122 31.111-31.122 2.843 0 5.604.381 8.221 1.103-13.197 3.606-22.891 15.679-22.891 30.019s9.694 26.403 22.891 30.009z" fill="#66b49d"/><circle cx="385.239" cy="389.922" fill="#be694f" r="31.115"/><path d="m393.456 419.931c-2.617.721-5.378 1.103-8.221 1.103-17.183 0-31.111-13.928-31.111-31.112 0-17.183 13.928-31.122 31.111-31.122 2.843 0 5.604.381 8.221 1.103-13.197 3.606-22.891 15.679-22.891 30.019.001 14.34 9.695 26.403 22.891 30.009z" fill="#934d36"/><circle cx="256" cy="158.905" fill="#dd636e" r="31.115"/><path d="m264.217 188.914c-2.617.721-5.378 1.103-8.221 1.103-17.183 0-31.111-13.928-31.111-31.112 0-17.183 13.928-31.122 31.111-31.122 2.843 0 5.604.381 8.221 1.103-13.197 3.606-22.891 15.679-22.891 30.019s9.694 26.404 22.891 30.009z" fill="#c63d4f"/><circle cx="441.381" cy="79.458" fill="#f4dd45" r="31.115"/><path d="m449.598 109.467c-2.617.721-5.378 1.103-8.221 1.103-17.183 0-31.111-13.928-31.111-31.112 0-17.183 13.928-31.122 31.111-31.122 2.843 0 5.604.381 8.221 1.103-13.197 3.606-22.891 15.679-22.891 30.019s9.694 26.403 22.891 30.009z" fill="#eab14d"/><circle cx="70.619" cy="432.552" fill="#617881" r="31.115"/><path d="m78.836 462.561c-2.617.721-5.378 1.103-8.221 1.103-17.183 0-31.111-13.928-31.111-31.112 0-17.183 13.928-31.122 31.111-31.122 2.843 0 5.604.381 8.221 1.103-13.197 3.606-22.891 15.679-22.891 30.019s9.694 26.404 22.891 30.009z" fill="#404a4a"/></g></g></svg>